<?xml version="1.0" encoding="UTF-8"?>
<svg id="_图层_1" data-name="图层_1" xmlns="http://www.w3.org/2000/svg" xmlns:xlink="http://www.w3.org/1999/xlink" version="1.1" viewBox="0 0 467.2 82.6">
  <!-- Generator: Adobe Illustrator 29.3.1, SVG Export Plug-In . SVG Version: 2.1.0 Build 151)  -->
  <defs>
    <style>
      .st0, .st1 {
        fill: #d7000f;
      }

      .st0, .st2 {
        fill-rule: evenodd;
      }

      .st2 {
        fill: #003b86;
      }

      .st3 {
        fill: #751484;
      }
    </style>
  </defs>
  <g>
    <g>
      <polygon class="st2" points="78 62.6 78 50.3 65.7 50.3 65.7 38 53.4 38 53.4 62.6 78 62.6 78 62.6"/>
      <polygon class="st0" points="84.1 62.6 84.1 31.9 53.4 31.9 65.3 20 96 20 96 50.7 84.1 62.6 84.1 62.6"/>
      <rect class="st3" x="69.8" y="38" width="8.2" height="8.2"/>
    </g>
    <g>
      <g>
        <path d="M119.7,43.2c-.9.2-1.9.3-2.9.5v5.1h-2.6v-4.7l-5.2.8-.6-3c1.6-.2,3.6-.4,5.8-.7v-2.7h-2.4c-.9,0-1.8.1-2,.4-.1-.5-.6-1.8-.9-2.5.5-.2.9-.8,1.4-1.9.2-.5.7-1.8,1.2-3.4h-2.8v-2.8h3.6c.2-.9.4-1.8.6-2.7l2.9.6c-.2.7-.3,1.4-.5,2.1h4.3v2.8h-5.2c-.6,1.7-1.3,3.4-1.9,4.8h1.7v-3.4h2.6v3.4h2.5v2.7h-2.5v2.3l2.7-.4v2.7ZM126.5,35.2c0,.7,0,1.6,0,2.5.8,3.8,2.6,7.2,5.6,8.7-.6.6-1.6,1.7-1.9,2.5-2.3-1.3-3.8-3.4-4.8-6.1-.8,2.1-2.3,4.3-4.6,6.2-.4-.6-1.5-1.6-2.2-2,4.8-3.6,5.2-8.6,5.2-11.8v-1.1h2.8v1.2ZM123.4,31.7c-.6,2-1.3,3.8-2.3,5.2-.5-.4-1.7-1.3-2.4-1.7,1.7-2.2,2.6-5.9,3.1-9.7l2.8.4c-.1,1.1-.3,2.1-.5,3.2h5.7c0,0,2,.4,2,.4-.5,2.5-1.1,5.3-1.6,7.1l-2.4-.6c.2-1.1.5-2.7.8-4.2h-5.1Z"/>
        <path d="M139.4,43.8c.4.2.8.6,1.4.9,1.6,1,3.9,1.1,6.6,1.1s6.8-.2,9.4-.6c-.3.7-.7,2.1-.8,2.8-1.9,0-6.1.2-8.7.2s-5.1-.3-6.9-1.2c-1-.6-1.8-1.3-2.4-1.3s-2,1.5-3,3l-1.8-2.5c1.1-1.1,2.3-2,3.3-2.5v-5.9h-3.1v-2.7h6v8.8ZM138.1,32.5c-.9-1.2-2.9-3-4.3-4.3l2-1.8c1.5,1.1,3.5,2.9,4.5,4l-2.1,2ZM144.4,44.7h-2.8v-12.9h5.4c-1.2-.5-2.5-1.1-3.6-1.5l1.9-1.6c.9.3,2.1.8,3.2,1.3.7-.4,1.4-.9,2.1-1.4h-8.9v-2.2h12.1c0-.1,1.7,1.3,1.7,1.3-1.2,1.2-2.9,2.5-4.5,3.5.5.2.9.5,1.3.7h0s3.3,0,3.3,0v10.3c0,1.2-.2,1.8-1,2.2-.8.4-1.9.4-3.3.4-.1-.7-.4-1.7-.7-2.3.8,0,1.6,0,1.9,0,.3,0,.4-.1.4-.4v-1.1h-2.9v3.6h-2.6v-3.6h-2.9v3.7ZM144.4,33.9v1.3h2.9v-1.3h-2.9ZM147.2,38.8v-1.4h-2.9v1.4h2.9ZM152.8,33.9h-2.9v1.3h2.9v-1.3ZM152.8,38.8v-1.4h-2.9v1.4h2.9Z"/>
        <path d="M162.6,32.6c-.7.6-1.5,1.2-2.2,1.7-.4-.5-1.5-1.7-2.1-2.3,2.6-1.5,5.3-3.9,6.8-6.5l2.8,1c-.7,1-1.4,2.1-2.3,3.1v8.7h-2.9v-5.7ZM181.4,43.9h-9.8v5h-3.2v-5h-9.7v-2.8h9.7v-2.7h3.2v2.7h9.8v2.8ZM170.5,33.3c-1.1.3-2.1.6-3.2.9-.2-.7-.6-1.7-1-2.3,1.4-.3,2.8-.8,4.2-1.3v-4.6h3v3.5c1.9-.8,3.7-1.7,5.1-2.7l2.1,2.3c-2,1.3-4.6,2.4-7.2,3.3v1.8c0,.9.2,1,1.2,1h2.9c.8,0,1-.4,1.1-2.5.6.4,1.8.9,2.6,1.1-.3,3-1.1,3.9-3.5,3.9h-3.6c-3,0-3.7-.8-3.7-3.5v-.9Z"/>
        <path d="M193.5,32.5c0,1-.1,2-.2,3h10.7s0,.9,0,1.3c-.4,6.8-1,9.5-2,10.6-.7.8-1.5,1-2.7,1.2-1,0-2.6,0-4.3,0,0-.8-.5-2.1-1-2.9,1.7.2,3.4.2,4.2.2s.9,0,1.2-.3c.6-.5,1.1-2.7,1.4-7.2h-7.9c-.8,4.2-2.7,8.1-7.2,10.7-.4-.8-1.4-1.8-2.2-2.5,6-3.2,6.5-8.8,6.7-14.1h-6.3v-2.9h10.5c-.4-1-1-2.2-1.5-3.2l2.9-1.1c.7,1.1,1.4,2.6,1.8,3.6l-1.7.7h10.2v2.9h-12.7Z"/>
      </g>
      <g>
        <g>
          <path class="st1" d="M112.4,51.1s0,0,0,0h0c-.2,0-.6,0-1.2.1-1,.2-1.7.7-2.1,1.4-.4.6-.6,1.5-.6,2.3v1.5c0-.2,0-.7.4-1.2.8-1,1.9-1.2,2.6-1.2h.9s0,0,0,0c0,0,0,0,0,0v-2.7s0,0,0,0Z"/>
          <path d="M119.1,56h0v3.2c0,1.8,1.3,3.1,3,3.1s3-1.4,3-3.2-1.3-3.1-3-3.1c0,0-3,0-3,0h0ZM120.5,59.2c0-.9.7-1.7,1.5-1.7s1.5.7,1.5,1.7-.7,1.7-1.5,1.7-1.5-.7-1.5-1.7Z"/>
          <path d="M145.6,56h0v3.2c0,1.8,1.3,3.1,3,3.1s3-1.4,3-3.2-1.3-3.1-3-3.1c0,0-3,0-3,0h0ZM147.1,59.2c0-.9.7-1.7,1.5-1.7s1.5.7,1.5,1.7-.7,1.7-1.5,1.7-1.5-.7-1.5-1.7Z"/>
          <path d="M158.1,56s0,0,0,0v6.1s0,0,0,0h4.4s0,0,0,0v-1.3s0,0,0,0h-2.7c0,0-.1,0-.1-.1v-.8c0,0,0-.1.1-.1h2.6s0,0,0,0v-1.3s0,0,0,0h-2.6c0,0-.1,0-.1-.1v-.8c0,0,0-.1.1-.1h2.7s0,0,0,0v-1.3s0,0,0,0h-4.4Z"/>
          <path d="M155.3,56h0s0,0,0,0v2.8s0,0,0,0c0,0,0,0-.1,0l-1.3-2.9s0,0,0,0h-1.5s0,0,0,0v6.1s0,0,0,0h1.5s0,0,0,0v-2.8s0,0,0,0c0,0,0,0,.1,0l1.3,2.9s0,0,0,0h1.5s0,0,0,0v-6.1s0,0,0,0h-1.5Z"/>
          <path d="M115,53.8c-1,.1-1.8.7-2.1,1.4-.1.3-.2.6-.2.9,0,.5.2,1.1.7,1.5.3.3.7.5,1.1.7,0,0,.6.2.6.2.4.1.8.3,1,.4.3.2.6.4.6.8s0,.3,0,.4c-.2.4-.6.6-1.2.6-1,0-1.7-.6-2.1-1.1l-.3-.3c-.1-.2-.2-.2-.2-.2,0,0,0,0,0,.1v1.5c0,.2,0,.3,0,.4.6.7,1.6,1.1,2.6,1.1,1,0,1.7-.3,2.3-.8.7-.7.9-1.8.6-2.6-.2-.6-.9-1.2-2.2-1.6-.9-.3-1.3-.5-1.5-.8-.2-.2-.2-.5-.1-.7.1-.3.4-.4.8-.5.3,0,.8,0,1.4.3.3.1.8.4,1.1.7,0,0,.1,0,.1,0,0,0,0,0,0-.1v-1.3h0c0-.2,0-.3,0-.3-.2-.2-.7-.4-1.2-.6-.6-.2-1.1-.2-1.6-.2Z"/>
          <path d="M137.5,54.1c-1,.1-1.8.7-2.1,1.4-.1.3-.2.6-.2.9,0,.5.2,1.1.7,1.5.3.3.7.5,1.1.7,0,0,.6.2.6.2.4.1.8.3,1,.4.3.2.6.4.6.8s0,.3,0,.4c-.2.4-.6.6-1.2.6-1,0-1.7-.6-2.1-1.1l-.3-.3c-.1-.2-.2-.2-.2-.2,0,0,0,0,0,.1v1.5c0,.2,0,.3,0,.4.6.7,1.6,1.1,2.6,1.1,1,0,1.7-.3,2.3-.8.7-.7.9-1.8.6-2.6-.2-.6-.9-1.2-2.2-1.6-.9-.3-1.3-.5-1.5-.8-.2-.2-.2-.5-.1-.7.1-.3.4-.4.8-.5.3,0,.8,0,1.4.3.3.1.8.4,1.1.7,0,0,.1,0,.1,0,0,0,0,0,0-.1v-1.3h0c0-.2,0-.3,0-.3-.2-.2-.7-.4-1.2-.6-.6-.2-1.1-.2-1.6-.2Z"/>
          <path d="M125.7,56s0,0,0,0v6.1s0,0,0,0h1.5s0,0,0,0v-1.7s0,0,0,0c0,0,0,0,0,0h2.3s0,0,0,0v-1.3s0,0,0,0h-2.3c0,0-.1,0-.1-.1v-1.4c0,0,0-.1.1-.1h2.5s0,0,0,0v-1.3s0,0,0,0h-4.2Z"/>
          <path d="M130.6,56s0,0,0,0v1.3s0,0,0,0h1.1c0,0,.1,0,.1.1v4.7s0,0,0,0h1.5s0,0,0,0v-4.7c0,0,0-.1.1-.1h1.1s0,0,0,0v-1.3s0,0,0,0h-4.1Z"/>
          <path d="M140.9,56s0,0,0,0v1.3s0,0,0,0h1.1c0,0,.1,0,.1.1v4.7s0,0,0,0h1.5s0,0,0,0v-4.7c0,0,0-.1.1-.1h1.1s0,0,0,0v-1.3s0,0,0,0h-4.1Z"/>
          <path d="M110.1,62.2c.7,0,1.4-.5,1.4-1.2h0v-5.7h-.2c-1.2,0-2.1.4-2.7,1.1-.5.6-.4,1-.4,1.7v4.1h1.8Z"/>
        </g>
        <g>
          <path d="M166.8,56.3h1.5v2.3h2v-2.3h1.5v6.2h-1.5v-2.5h-2v2.5h-1.5v-6.2Z"/>
          <path d="M173.2,59.5v-3.3h1.5v3.4c0,1.2.3,1.6,1,1.6s1-.4,1-1.6v-3.4h1.4v3.3c0,2.1-.8,3-2.5,3s-2.5-.9-2.5-3Z"/>
          <path d="M182.3,61h-1.8l-.4,1.4h-1.5l1.9-6.2h1.8l1.9,6.2h-1.6l-.4-1.4ZM182.1,59.9v-.5c-.3-.6-.5-1.3-.6-2h0c-.1.6-.3,1.4-.5,2v.5c-.1,0,1.1,0,1.1,0Z"/>
          <path d="M184.9,56.3h3.9v1.2h-2.4v1.3h2.1v1.2h-2.1v2.3h-1.5v-6.2Z"/>
          <path d="M192.4,61h-1.8l-.4,1.4h-1.5l1.9-6.2h1.8l1.9,6.2h-1.6l-.4-1.4ZM192.2,59.9v-.5c-.3-.6-.5-1.3-.6-2h0c-.1.6-.3,1.4-.5,2v.5c-.1,0,1.1,0,1.1,0Z"/>
          <path d="M195,56.3h1.5l1.5,2.9.6,1.4h0c0-.7-.2-1.5-.2-2.3v-2h1.4v6.2h-1.5l-1.5-3-.6-1.3h0c0,.7.2,1.5.2,2.3v2h-1.4v-6.2Z"/>
          <path d="M201,59.4c0-2.1,1.4-3.2,3-3.2s1.5.4,2,.8l-.8.9c-.3-.3-.6-.5-1.1-.5-.9,0-1.6.7-1.6,1.9s.5,1.9,1.7,1.9.5,0,.6-.2v-1h-1v-1.2h2.3v2.9c-.4.4-1.2.8-2.1.8-1.7,0-3.1-1.1-3.1-3.2Z"/>
        </g>
      </g>
    </g>
  </g>
  <rect x="224" y="24.3" width=".6" height="34"/>
  <g>
    <path d="M256.7,31.6c-.2.2-.3.4-.5.6,3,3.2,6.2,4.7,9.5,5.9-.7.6-1.4,1.5-1.7,2.4-3.2-1.4-6.2-3.1-9.3-6.4-2.6,2.7-5.8,4.9-9.2,6.4-.4-.7-1.2-1.7-1.9-2.3,4.1-1.6,8.3-4.3,10.6-7.8l2.5,1.2ZM256.2,49h8.2v2.5h-19.5v-2.5h2.5v-8h2.7v8h3.2v-11.8h2.9v4.7h6.1v2.5h-6.1v4.6Z"/>
    <path d="M289,48.3v2.7h-20.6v-2.7h5.9v-17.4h2.8v17.4h3v-17.4h2.8v12.7c1.1-2.2,2.5-5.4,3.3-8.1l2.5,1.2c-1,2.9-2.5,6.1-3.7,8.3l-2.1-1.1v4.3h6ZM271.5,44.9c-.5-2.2-1.7-5.9-2.8-8.7l2.5-.7c1.1,2.7,2.4,6.3,3,8.5l-2.7,1Z"/>
    <path d="M300.2,41.6c0,.7,0,1.7.1,2.3-5.9,1.7-6.9,2.1-7.5,2.5-.1-.5-.5-1.7-.8-2.4.6-.1,1.1-.6,1.9-1.5.4-.4,1.1-1.3,1.9-2.5-2.1.3-2.7.4-3.1.6-.1-.5-.5-1.7-.9-2.5.5-.1.9-.6,1.4-1.4.5-.7,2.1-3.6,3-6.3l2.5,1.2c-.9,2.1-2.1,4.3-3.5,6.2l2-.2c.5-.8.9-1.6,1.4-2.4l2.2,1.4c-1.1,2-2.5,4.1-4,5.9l3.3-.9ZM313.1,38.5c-.7,3.4-1.8,6.3-3.3,8.6,1.2,1.2,2.5,2.1,4,2.8-.6.5-1.4,1.5-1.8,2.2-1.4-.8-2.7-1.7-3.9-2.9-1.1,1.2-2.3,2.2-3.7,2.9-.4-.6-1.3-1.6-1.9-2,1.4-.7,2.7-1.7,3.9-2.9-.7-1-1.4-2.1-2-3.2-.7,3.3-1.8,6.1-3.4,8.3-.5-.4-1.7-1.3-2.4-1.7.7-.8,1.2-1.6,1.7-2.6-2.5,1.1-5.2,2.2-7.3,3.1l-.6-2.7c1.9-.6,4.9-1.8,7.8-2.9l.5,1.9c1.5-3.3,2-7.7,2.3-12.8h-2.3v-2.6h10.6c-.5,1.9-1,4-1.5,5.9h1.8c0-.1,1.7.6,1.7.6ZM305.6,34.6c0,1.7-.2,3.3-.4,4.9.7,2,1.7,3.9,2.9,5.6.9-1.4,1.5-3,2-4.8h-3.8c.5-1.5,1.1-3.6,1.6-5.7h-2.3Z"/>
    <path d="M320,41.3c-.8-.7-2.5-1.7-3.7-2.4l1.5-2c1.2.6,2.9,1.5,3.8,2.2l-1.6,2.2ZM321.8,44.5c-.8,2.5-1.7,5.1-2.7,7.4l-2.5-1.4c.9-1.8,2-4.7,2.9-7.4l2.2,1.4ZM320.9,35.3c-.8-.7-2.5-1.8-3.8-2.5l1.6-2c1.2.6,2.9,1.6,3.8,2.3l-1.7,2.2ZM328.3,47.3c1.1,1.1,2.3,2.6,2.9,3.6l-1.7,1.1c-.6-.9-1.7-2.5-2.7-3.6-.7,1.5-1.9,2.8-4,3.7-.2-.5-.8-1.3-1.2-1.7,3.6-1.6,4-4.1,4-6.6v-8.8h2v8.8c0,1.4-.1,2.9-.7,4.3l1.4-.9ZM324.6,46.9h-2v-15h8.2v14.9h-2.1v-12.9h-4v13.1ZM333.9,46.8h-2.1v-14.1h2.1v14.1ZM337.1,31v18.4c0,1.2-.2,1.9-1,2.2-.7.4-1.8.5-3.5.4,0-.6-.4-1.6-.7-2.2,1.1,0,2.2,0,2.5,0s.5-.1.5-.5v-18.4h2.1Z"/>
    <path d="M352.8,47.1c.8-.2,1.5-.4,2.3-.6l.4,2.4c-2.3.7-4.8,1.4-6.7,2l-.6-2.2c-3.4,2.3-4.1,2.7-4.5,3.2-.2-.7-.9-1.8-1.3-2.4.5-.3,1.2-1.1,1.2-2.1v-7h-2.7v-2.6h5.3v9.3l2-1.3c.1.7.5,1.8.7,2.3h0c.4,0,.9-.2,1.4-.3v-4.9h-1.9v-2.5h6.1v2.5h-1.7v4.3ZM345.5,36.3c-.7-1-2.3-2.6-3.5-3.7l1.8-1.7c1.2,1,2.9,2.4,3.6,3.4l-1.9,1.9ZM357.7,37.6c.3,6.1.9,10.6,1.7,10.6.3,0,.5-1.1.6-3.2.5.6,1.7,1.3,2.1,1.6-.6,4.4-1.9,5.3-2.8,5.3-2.9,0-3.9-5.4-4.3-14.3h-7.2v-2.6h7.1c0-1.4,0-2.8,0-4.2h2.8c0,1.4,0,2.9,0,4.2h2.1c-.4-.9-1.3-2.1-2-3l1.8-1.1c.9.9,1.8,2.2,2.2,3.1l-1.7,1.1h1.7v2.6h-4.1Z"/>
    <path d="M375.7,36c-.5,1.1-.9,2.3-1.4,3.3h2.7v2.5h-12.1v-2.5h2.9c-.2-.9-.7-2.3-1.1-3.2l1.9-.5h-3.1v-2.5h4.3c-.2-.7-.5-1.4-.7-2l2.5-.7c.4.9.8,1.9,1.1,2.7h3.9v2.5h-2.7l1.9.4ZM365.9,43.4h10.2v8.5h-2.7v-.9h-4.9v1h-2.6v-8.6ZM368.5,45.9v2.8h4.9v-2.8h-4.9ZM369.1,35.6c.6,1,1,2.4,1.3,3.3l-1.4.4h2.7c.5-1.1,1-2.6,1.3-3.7h-3.9ZM386.1,32.8c-.8,2.2-1.7,4.9-2.6,6.8,1.8,2.1,2.2,3.9,2.2,5.4s-.4,2.8-1.2,3.4c-.4.3-.9.5-1.5.6-.5,0-1.2,0-1.8,0,0-.7-.3-1.8-.7-2.5.5,0,1,0,1.3,0s.6,0,.9-.2c.4-.2.5-.8.5-1.6,0-1.2-.5-2.9-2.2-4.7.6-1.7,1.4-4,1.9-5.8h-2.6v17.8h-2.4v-20.3h6.3c0,0,1.9,1.1,1.9,1.1Z"/>
  </g>
</svg>